# xmcd
#
# Track frame offsets:
#	150
#	14218
#	48899
#	67528
#	86322
#	102392
#	119609
#	137806
#	154670
#	172501
#
# Disc length: 2814 seconds
#
# Revision: 1
# Processed by: cddbd v1.5.2PL0 Copyright (c) Steve Scherf et al.
# Submitted via: audiograbber 1.83.01
#
DISCID=740afc0a
DTITLE=Joe Galullo and the Blues Messengers - The Blues is Back!
DYEAR=2003
DGENRE=Blues
TTITLE0=I Feel I've Got The Blues
TTITLE1=I'm So Down
TTITLE2=Down On The Road
TTITLE3=The Lord Of Blues Is Gone
TTITLE4=Whisky And Women
TTITLE5=Down In New Orleans
TTITLE6=Hard Times
TTITLE7=Sweet Pretty Baby
TTITLE8=Slow Slide Blues
TTITLE9=Kukurukuku
EXTD=
EXTT0=
EXTT1=
EXTT2=
EXTT3=
EXTT4=
EXTT5=
EXTT6=
EXTT7=
EXTT8=
EXTT9=
PLAYORDER=
